<?xml version="1.0" encoding="UTF-8" standalone="no"?>
<!-- Generator: Adobe Illustrator 26.0.3, SVG Export Plug-In . SVG Version: 6.00 Build 0)  -->

<svg
   version="1.1"
   id="svg1655"
   inkscape:version="1.1.1 (c3084ef, 2021-09-22)"
   sodipodi:docname="serverless-app-server.svg"
   x="0px"
   y="0px"
   viewBox="0 0 250 250"
   xml:space="preserve"
   width="250"
   height="250"
   xmlns:inkscape="http://www.inkscape.org/namespaces/inkscape"
   xmlns:sodipodi="http://sodipodi.sourceforge.net/DTD/sodipodi-0.dtd"
   xmlns="http://www.w3.org/2000/svg"
   xmlns:svg="http://www.w3.org/2000/svg"><defs
   id="defs225" />
<style
   type="text/css"
   id="style126">
	.st0{font-family:'Helvetica';}
	.st1{font-size:18.6667px;}
	.st2{fill:none;}
	.st3{fill:#00BAC6;}
	.st4{fill:none;stroke:#000000;stroke-width:1.5719;stroke-linecap:round;stroke-linejoin:round;}
	.st5{fill:none;stroke:#000000;stroke-width:2;stroke-linecap:round;stroke-linejoin:round;}
	.st6{fill-rule:evenodd;clip-rule:evenodd;}
	.st7{fill:none;stroke:#000000;stroke-width:2;stroke-miterlimit:10;}
</style>
<sodipodi:namedview
   bordercolor="#666666"
   borderopacity="1.0"
   id="namedview1657"
   inkscape:current-layer="fulldi"
   inkscape:cx="64.039841"
   inkscape:cy="25.367582"
   inkscape:lockguides="true"
   inkscape:pagecheckerboard="0"
   inkscape:pageopacity="0.0"
   inkscape:pageshadow="2"
   inkscape:window-height="779"
   inkscape:window-maximized="0"
   inkscape:window-width="1296"
   inkscape:window-x="0"
   inkscape:window-y="23"
   inkscape:zoom="2.8185579"
   pagecolor="#ffffff"
   showgrid="false"
   width="250px">
	</sodipodi:namedview>
<g
   id="color_x5F_palette">
</g>
<g
   id="fulldi">
	
	
	<g
   id="g1290">
		<g
   id="g1288">
		</g>
	</g>
	
	<g
   id="g1368">
	</g>
	
	
	<path
   class="st2"
   d=""
   id="path192" />
	
	<path
   class="st2"
   d=""
   id="path195" />
	
<rect
   style="opacity:0.89;fill:#ffffff;fill-opacity:1;stroke-width:0.493026"
   id="rect1656"
   width="254.13309"
   height="245.52367"
   x="-1.8413552"
   y="6.2390189"
   transform="matrix(0.99912285,-0.04187527,0,1,0,0)" /><g
   id="g1232"
   transform="matrix(0.51968677,0,0,0.51968677,23.595286,-4.3510608)"><rect
     id="rect1200"
     x="166.2"
     y="376.70001"
     width="2.0999999"
     height="1.6" /><rect
     id="rect1202"
     x="170.39999"
     y="376.70001"
     width="2.0999999"
     height="1.6" /><rect
     id="rect1204"
     x="174.5"
     y="376.70001"
     width="2.0999999"
     height="1.6" /><path
     id="path1206"
     d="m 170.4,400.6 h 14.5 v -11.2 h -14.5 z m 2,-9.6 h 10.3 v 8 h -10.3 z" /><path
     id="path1208"
     d="m 191.1,400.6 h 14.5 v -11.2 h -14.5 z m 2,-9.6 h 10.3 v 8 h -10.3 z" /><path
     id="path1210"
     d="m 191.1,416.5 h 14.5 v -11.2 h -14.5 z m 2,-9.5 h 10.3 v 8 h -10.3 z" /><path
     id="path1212"
     d="m 211.7,416.5 h 14.5 v -11.2 h -14.5 z m 2.1,-9.5 h 10.3 v 8 h -10.3 z" /><path
     id="path1214"
     d="m 184.4,373.5 h -0.6 -21.7 v 6.4 4 39 h 72.4 v -39 -4 -6.4 z m -20.2,1.6 h 19 l 3.1,4.8 h -22.1 z m 68.2,46.2 h -68.3 v -37.4 -2.4 h 68.3 v 2.4 z m -43.8,-41.4 -3.1,-4.8 h 47 v 4.8 z" /><rect
     id="rect1216"
     x="212.8"
     y="389.39999"
     width="12.4"
     height="1.6" /><rect
     id="rect1218"
     x="212.8"
     y="392.60001"
     width="12.4"
     height="1.6" /><rect
     id="rect1220"
     x="212.8"
     y="395.79999"
     width="12.4"
     height="1.6" /><rect
     id="rect1222"
     x="212.8"
     y="399"
     width="8.3000002"
     height="1.6" /><rect
     id="rect1224"
     x="171.39999"
     y="405.39999"
     width="12.4"
     height="1.6" /><rect
     id="rect1226"
     x="171.39999"
     y="408.60001"
     width="12.4"
     height="1.6" /><rect
     id="rect1228"
     x="171.39999"
     y="411.70001"
     width="12.4"
     height="1.6" /><rect
     id="rect1230"
     x="171.39999"
     y="414.89999"
     width="8.3000002"
     height="1.6" /></g><g
   id="g1262"
   transform="matrix(0.51968677,0,0,0.51968677,23.595286,-4.3510608)"><path
     id="path1258"
     d="m 256.5,369.2 c -0.1,-1.3 -1.3,-2.4 -2.7,-2.4 h -103 c -1.4,0 -2.6,1.1 -2.7,2.4 v 66 c 0,1.4 1.2,2.6 2.7,2.6 h 102.9 c 1.5,0 2.7,-1.2 2.7,-2.6 z m -4.4,56.3 H 152.4 V 371 h 99.7 z" /><path
     id="path1260"
     d="m 219.6,450.1 c -4.3,-1 -5.4,-4.1 -5.4,-8.2 v -1 h -11.9 -11.9 v 1 c 0,4.1 -1.1,7.2 -5.4,8.2 -1.1,0.2 -1.1,2.1 0,2.1 h 17.3 17.3 c 1.1,0 1.1,-1.8 0,-2.1 z" /></g><path
   id="path1350"
   d="m 180.39726,206.93275 c -0.9874,-0.41574 -3.63781,-1.14331 -3.63781,-1.14331 l -0.20787,-0.0519 c 0,0 -2.59844,-0.72755 -3.68978,-0.88347 -1.87087,-0.25984 -3.27403,-0.67559 -4.3134,3.06615 -0.36378,1.24726 -5.56065,20.16385 -6.08034,22.03472 -0.51968,1.87088 0.62363,3.4819 2.59844,4.05357 1.97481,0.57165 3.42993,0.93543 3.42993,0.93543 l 0.20788,0.0519 c 0,0 1.50709,0.41574 3.42993,0.93542 1.97481,0.51969 3.79371,-0.25983 4.3134,-2.13071 0.51969,-1.87087 5.71655,-20.7355 6.08033,-22.03472 1.03938,-3.74174 -0.36378,-4.05355 -2.13071,-4.83309 z m -5.35277,-0.62362 2.65039,0.72757 c 0.10395,0 0.15592,0.10393 0.10395,0.20787 -0.0519,0.10393 -0.10395,0.1559 -0.20788,0.1559 l -2.6504,-0.72756 c -0.10394,-0.0519 -0.15591,-0.10393 -0.10394,-0.20787 0.052,-0.15591 0.15591,-0.20787 0.20788,-0.15591 z m -4.52128,27.85521 c -0.0519,0.15592 -0.20788,0.25985 -0.31181,0.20787 l -2.59843,-0.72755 c -0.15592,-0.0519 -0.20788,-0.20787 -0.20788,-0.36378 l 0.10394,-0.41575 c 0.0519,-0.15591 0.20787,-0.25985 0.36377,-0.20788 l 2.59844,0.72757 c 0.15591,0.0519 0.20788,0.20787 0.20788,0.36378 z m 5.09293,-1.50709 -11.90083,-3.27402 6.08034,-22.03472 11.90082,3.27403 z"
   style="stroke-width:0.519687" /><text
   class="st0 st1"
   id="text154"
   style="font-size:9.70088px;font-family:Helvetica;stroke-width:0.519687"
   x="103.3101"
   y="243.67499">Client App</text><g
   id="g12249"
   transform="matrix(0.51968677,0,0,0.51968677,-127.03831,-2.9760375)"><g
     id="g1468"
     transform="matrix(2.6502463,0,0,2.2410346,251.66832,-45.806501)"><path
       id="path1464"
       class="st2"
       d="m 144.4,65.1 -0.7,-0.4 v -0.8 c -0.4,-17.8 -16,-32.4 -34.8,-32.4 -12.1,0 -23.2,5.9 -29.6,15.7 l -0.6,0.9 -1,-0.3 c -2.3,-0.6 -4.6,-1 -7,-1 -10.2,0 -19.5,6.1 -23.1,15.2 L 47.3,62.7 46.7,63 C 36.8,65.6 30,74.1 30,83.8 c 0,11.9 10.2,21.6 22.7,21.6 h 80.4 c 12.5,0 22.7,-9.7 22.7,-21.6 0,-7.6 -4.4,-14.8 -11.4,-18.7 z" /><g
       id="g12252"><path
         id="path1466"
         d="M 143.7,64.7 C 142.8,44.9 126.6,28.9 107,28.9 94.5,28.9 83.2,35.2 76.3,45.7 74.2,45.2 71.9,44.9 69.7,44.9 58.8,44.9 48.8,51.7 44.8,62 34.4,65.2 27.1,75.2 27.1,86.3 c 0,14 11.2,25.4 25,25.4 h 78.5 c 13.8,0 25,-11.4 25,-25.4 -0.1,-8.8 -4.6,-17 -11.9,-21.6 z m -13.1,44 H 52.1 c -12.2,0 -22.2,-10.1 -22.2,-22.5 0,-10.1 6.7,-19.1 16.3,-21.7 l 0.7,-0.2 0.3,-0.7 c 3.5,-9.5 12.6,-15.9 22.6,-15.9 2.3,0 4.6,0.3 6.8,1 l 1,0.3 0.6,-0.9 c 6.2,-10.2 17,-16.4 28.9,-16.4 18.4,0 33.5,15.1 34,33.8 v 0.8 l 0.7,0.4 c 6.8,4.1 11.1,11.5 11.1,19.5 -0.1,12.5 -10.1,22.5 -22.3,22.5 z" /></g></g><g
     id="g12271"
     transform="translate(-9.0054532,-3.2162334)"><path
       id="path587"
       class="st3"
       d="m 530.5,45.4 h -0.2 c -2.5,0 -5.1,-2.7 -5.1,-5.3 v -0.2 h -0.4 v 0.2 c 0,2.6 -2.6,5.3 -5.1,5.3 h -0.2 v 0.4 h 0.2 c 2.5,0 5.1,2.7 5.1,5.3 v 0.2 h 0.4 v -0.2 c 0,-2.6 2.6,-5.3 5.1,-5.3 h 0.2 z" /><path
       id="path589"
       class="st3"
       d="m 530.5,56.8 h -0.2 c -2.5,0 -5.1,-2.7 -5.1,-5.3 v -0.2 h -0.4 v 0.2 c 0,2.6 -2.6,5.3 -5.1,5.3 h -0.2 v 0.4 h 0.2 c 2.5,0 5.1,2.7 5.1,5.3 v 0.2 h 0.4 v -0.2 c 0,-2.6 2.6,-5.3 5.1,-5.3 h 0.2 z" /><path
       id="path591"
       class="st3"
       d="m 541.3,56.8 h -0.2 c -2.5,0 -5.1,-2.7 -5.1,-5.3 v -0.2 h -0.4 v 0.2 c 0,2.6 -2.6,5.3 -5.1,5.3 h -0.2 v 0.4 h 0.2 c 2.5,0 5.1,2.7 5.1,5.3 v 0.2 h 0.4 v -0.2 c 0,-2.6 2.6,-5.3 5.1,-5.3 h 0.2 z" /><path
       id="path593"
       class="st3"
       d="m 530.5,68.3 h -0.2 c -2.5,0 -5.1,-2.8 -5.1,-5.5 v -0.2 h -0.4 v 0.2 c 0,2.7 -2.6,5.5 -5.1,5.5 h -0.2 v 0.4 h 0.2 c 2.5,0 5.1,2.8 5.1,5.5 v 0.2 h 0.4 v -0.2 c 0,-2.7 2.6,-5.5 5.1,-5.5 h 0.2 z" /><path
       id="path595"
       class="st3"
       d="m 541.3,68.3 h -0.2 c -2.5,0 -5.1,-2.8 -5.1,-5.5 v -0.2 h -0.4 v 0.2 c 0,2.7 -2.6,5.5 -5.1,5.5 h -0.2 v 0.4 h 0.2 c 2.5,0 5.1,2.8 5.1,5.5 v 0.2 h 0.4 v -0.2 c 0,-2.7 2.6,-5.5 5.1,-5.5 h 0.2 z" /><path
       id="path597"
       class="st3"
       d="M 552.1,68.3 H 552 c -2.5,0 -5.1,-2.8 -5.1,-5.5 v -0.2 h -0.4 v 0.2 c 0,2.7 -2.6,5.5 -5.1,5.5 h -0.2 v 0.4 h 0.2 c 2.5,0 5.1,2.8 5.1,5.5 v 0.2 h 0.4 v -0.2 c 0,-2.7 2.6,-5.5 5.1,-5.5 h 0.2 v -0.4 z" /><path
       id="path599"
       class="st3"
       d="m 530.5,79.9 h -0.2 c -2.5,0 -5.1,-2.7 -5.1,-5.3 v -0.2 h -0.4 v 0.2 c 0,2.6 -2.6,5.3 -5.1,5.3 h -0.2 v 0.4 h 0.2 c 2.5,0 5.1,2.7 5.1,5.3 v 0.2 h 0.4 v -0.2 c 0,-2.6 2.6,-5.3 5.1,-5.3 h 0.2 z" /><path
       id="path601"
       class="st3"
       d="m 541.3,79.9 h -0.2 c -2.5,0 -5.1,-2.7 -5.1,-5.3 v -0.2 h -0.4 v 0.2 c 0,2.6 -2.6,5.3 -5.1,5.3 h -0.2 v 0.4 h 0.2 c 2.5,0 5.1,2.7 5.1,5.3 v 0.2 h 0.4 v -0.2 c 0,-2.6 2.6,-5.3 5.1,-5.3 h 0.2 z" /><path
       id="path603"
       class="st3"
       d="m 562.7,56.8 h -0.2 c -2.4,0 -4.9,-2.7 -4.9,-5.3 v -0.2 h -0.4 v 0.2 c 0,2.6 -2.5,5.3 -4.9,5.3 h -0.2 v 0.4 h 0.2 c 2.4,0 4.9,2.7 4.9,5.3 v 0.2 h 0.4 v -0.2 c 0,-2.6 2.5,-5.3 4.9,-5.3 h 0.2 z" /><path
       id="path605"
       class="st3"
       d="m 562.7,68.3 h -0.2 c -2.4,0 -4.9,-2.8 -4.9,-5.5 v -0.2 h -0.4 v 0.2 c 0,2.7 -2.5,5.5 -4.9,5.5 h -0.2 v 0.4 h 0.2 c 2.4,0 4.9,2.8 4.9,5.5 v 0.2 h 0.4 v -0.2 c 0,-2.7 2.5,-5.5 4.9,-5.5 h 0.2 z" /><path
       id="path607"
       class="st3"
       d="m 562.7,79.9 h -0.2 c -2.4,0 -4.9,-2.7 -4.9,-5.3 v -0.2 h -0.4 v 0.2 c 0,2.6 -2.5,5.3 -4.9,5.3 h -0.2 v 0.4 h 0.2 c 2.4,0 4.9,2.7 4.9,5.3 v 0.2 h 0.4 v -0.2 c 0,-2.6 2.5,-5.3 4.9,-5.3 h 0.2 z" /><path
       id="path609"
       class="st3"
       d="m 573.5,56.8 h -0.2 c -2.4,0 -4.9,-2.7 -4.9,-5.3 V 51.3 H 568 v 0.2 c 0,2.6 -2.5,5.3 -4.9,5.3 H 563 v 0.4 h 0.2 c 2.4,0 4.9,2.7 4.9,5.3 v 0.2 h 0.4 v -0.2 c 0,-2.6 2.5,-5.3 4.9,-5.3 h 0.2 v -0.4 z" /><path
       id="path611"
       class="st3"
       d="m 573.5,45.4 h -0.2 c -2.4,0 -4.9,-2.7 -4.9,-5.3 V 39.9 H 568 v 0.2 c 0,2.6 -2.5,5.3 -4.9,5.3 H 563 v 0.4 h 0.2 c 2.4,0 4.9,2.7 4.9,5.3 v 0.2 h 0.4 v -0.2 c 0,-2.6 2.5,-5.3 4.9,-5.3 h 0.2 v -0.4 z" /><path
       id="path613"
       class="st3"
       d="m 573.5,68.3 h -0.2 c -2.4,0 -4.9,-2.8 -4.9,-5.5 V 62.6 H 568 v 0.2 c 0,2.7 -2.5,5.5 -4.9,5.5 H 563 v 0.4 h 0.2 c 2.4,0 4.9,2.8 4.9,5.5 v 0.2 h 0.4 v -0.2 c 0,-2.7 2.5,-5.5 4.9,-5.5 h 0.2 v -0.4 z" /><path
       id="path615"
       class="st3"
       d="m 573.5,91.3 h -0.2 c -2.4,0 -4.9,-2.7 -4.9,-5.3 V 85.8 H 568 V 86 c 0,2.6 -2.5,5.3 -4.9,5.3 H 563 v 0.4 h 0.2 c 2.4,0 4.9,2.7 4.9,5.3 v 0.2 h 0.4 V 97 c 0,-2.6 2.5,-5.3 4.9,-5.3 h 0.2 v -0.4 z" /><path
       id="path617"
       class="st3"
       d="m 530.5,91.3 h -0.2 c -2.5,0 -5.1,-2.7 -5.1,-5.3 v -0.2 h -0.4 V 86 c 0,2.6 -2.6,5.3 -5.1,5.3 h -0.2 v 0.4 h 0.2 c 2.5,0 5.1,2.7 5.1,5.3 v 0.2 h 0.4 V 97 c 0,-2.6 2.6,-5.3 5.1,-5.3 h 0.2 z" /><path
       id="path619"
       class="st3"
       d="m 573.5,79.9 h -0.2 c -2.4,0 -4.9,-2.7 -4.9,-5.3 V 74.4 H 568 v 0.2 c 0,2.6 -2.5,5.3 -4.9,5.3 H 563 v 0.4 h 0.2 c 2.4,0 4.9,2.7 4.9,5.3 v 0.2 h 0.4 v -0.2 c 0,-2.6 2.5,-5.3 4.9,-5.3 h 0.2 v -0.4 z" /></g><g
     id="g11087"
     transform="translate(153.08002,-29.43067)"><text
       transform="translate(361.8858,209.7146)"
       class="st0 st1"
       id="text178">Compute</text><path
       id="path553"
       class="st4"
       d="M 433.2,172 H 384.5" /><path
       id="path555"
       class="st5"
       d="m 392.9,158.9 -8.4,13.1 v 11.4 c 0,1 0.5,2 1.4,2.7 0.9,0.7 2.2,1.1 3.4,1.1 h 38.9 c 1.3,0 2.5,-0.4 3.4,-1.1 0.9,-0.7 1.4,-1.7 1.4,-2.7 V 172 l -8.4,-13.1 c -0.4,-0.6 -1,-1.2 -1.8,-1.5 -0.8,-0.4 -1.7,-0.6 -2.6,-0.6 H 397 c -0.9,0 -1.8,0.2 -2.6,0.6 -0.8,0.4 -1.1,0.9 -1.5,1.5 z" /><path
       id="path557"
       class="st4"
       d="m 394.2,179.6 v 0" /><path
       id="path559"
       class="st4"
       d="m 403.9,179.6 v 0" /></g><g
     id="g11094"
     transform="translate(-121.92513,-30.148465)"><text
       transform="translate(517.3066,209.7146)"
       class="st0 st1"
       id="text185">Storage</text><path
       id="path567"
       class="st5"
       d="m 555.1,154 c 11.1,0 20.1,-3 20.1,-6.7 0,-3.7 -9,-6.7 -20.1,-6.7 -11.1,0 -20.1,3 -20.1,6.7 0,3.7 9,6.7 20.1,6.7 z" /><path
       id="path569"
       class="st5"
       d="m 575.1,162.9 c 0,3.7 -8.9,6.7 -20.1,6.7 -11.2,0 -20.1,-3 -20.1,-6.7" /><path
       id="path571"
       class="st5"
       d="m 535,147.3 v 31.2 c 0,3.7 8.9,6.7 20.1,6.7 11.2,0 20.1,-3 20.1,-6.7 v -31.2" /></g></g><path
   id="path13706"
   class="st6"
   d="M 106.44583,182.81929"
   style="clip-rule:evenodd;fill-rule:evenodd;stroke-width:0.519687" /><path
   id="path13706-6"
   class="st6"
   d="M 147.91684,104.6584"
   style="clip-rule:evenodd;fill-rule:evenodd;stroke-width:0.519687" /><g
   id="g210"
   transform="matrix(0.51968677,0,0,0.51968677,-0.76554732,-9.880562)"><line
     class="st6"
     x1="190.2"
     y1="360"
     x2="190.2"
     y2="234"
     id="line200" /><g
     id="g208"><line
       class="st7"
       x1="190.2"
       y1="360"
       x2="190.2"
       y2="248.10001"
       id="line202" /><g
       id="g206"><polygon
         points="190.2,249.2 182,253.9 190.2,234 198.3,253.9 "
         id="polygon204" /></g></g></g><g
   id="g222"
   transform="matrix(0.51968677,0,0,0.51968677,-0.76554732,-9.880562)"><line
     class="st6"
     x1="310.70001"
     y1="234"
     x2="310.70001"
     y2="360"
     id="line212" /><g
     id="g220"><line
       class="st7"
       x1="310.70001"
       y1="234"
       x2="310.70001"
       y2="345.89999"
       id="line214" /><g
       id="g218"><polygon
         points="310.7,344.8 318.8,340.1 310.7,360 302.5,340.1 "
         id="polygon216" /></g></g></g></g>
<g
   id="jschostingonly">
</g>


</svg>
